<?xml version="1.0" standalone="no"?>
<!DOCTYPE svg PUBLIC "-//W3C//DTD SVG 20010904//EN"
 "http://www.w3.org/TR/2001/REC-SVG-20010904/DTD/svg10.dtd">
<svg version="1.0" xmlns="http://www.w3.org/2000/svg"
 width="512.000000pt" height="512.000000pt" viewBox="0 0 512.000000 512.000000"
 preserveAspectRatio="xMidYMid meet">
<metadata>
Created by potrace 1.11, written by Peter Selinger 2001-2013
</metadata>
<g transform="translate(0.000000,512.000000) scale(0.100000,-0.100000)"
fill="#000000" stroke="none">
<path d="M560 2560 l0 -2560 410 0 409 0 4 1467 c4 1567 2 1516 52 1758 104
504 428 896 857 1036 296 96 709 74 963 -51 263 -130 396 -360 462 -800 15
-104 17 -267 20 -1763 l4 -1647 409 0 410 0 0 1773 c0 1112 -4 1806 -10 1862
-47 424 -188 744 -435 990 -294 294 -703 437 -1250 438 -221 1 -347 -16 -524
-69 -352 -107 -674 -344 -924 -681 -34 -46 -65 -83 -69 -83 -4 0 -9 156 -10
347 l-3 347 -365 92 c-201 51 -375 95 -387 99 l-23 5 0 -2560z"/>
</g>
</svg>
