<?xml version="1.0" standalone="no"?>
<!DOCTYPE svg PUBLIC "-//W3C//DTD SVG 20010904//EN"
 "http://www.w3.org/TR/2001/REC-SVG-20010904/DTD/svg10.dtd">
<svg version="1.0" xmlns="http://www.w3.org/2000/svg"
 width="700.000000pt" height="700.000000pt" viewBox="0 0 700.000000 700.000000"
 preserveAspectRatio="xMidYMid meet">
<metadata>
Created by potrace 1.11, written by Peter Selinger 2001-2013
</metadata>
<g transform="translate(0.000000,700.000000) scale(0.100000,-0.100000)"
fill="#000000" stroke="none">
<path d="M4944 6984 c-218 -38 -449 -137 -710 -301 -193 -123 -257 -174 -340
-271 -43 -52 -86 -101 -94 -110 -8 -9 -80 -93 -160 -187 -80 -93 -157 -183
-171 -200 -38 -43 -855 -996 -969 -1130 -106 -125 -568 -663 -609 -710 -14
-16 -91 -106 -171 -200 -80 -93 -155 -181 -167 -195 -12 -14 -157 -182 -322
-375 -321 -373 -349 -413 -431 -620 -236 -592 -129 -1113 295 -1436 60 -46
220 -149 231 -149 3 0 38 -15 77 -34 110 -51 135 -61 233 -95 85 -28 297 -87
354 -97 14 -2 48 -9 76 -15 28 -5 64 -8 80 -5 16 3 54 8 84 11 53 6 349 61
380 70 8 2 31 7 50 10 53 9 103 17 125 22 11 2 76 6 145 10 237 11 397 -45
539 -188 29 -30 94 -115 143 -189 108 -162 142 -204 232 -293 75 -73 162 -138
242 -180 74 -39 162 -75 199 -83 6 -1 29 -7 52 -13 71 -19 142 -26 273 -25
225 1 425 54 695 183 144 70 209 120 283 220 15 20 30 38 33 41 3 3 23 36 43
74 60 110 119 273 140 391 33 174 39 251 51 630 15 490 18 571 30 726 9 108
21 217 30 269 1 8 6 35 10 60 11 66 11 69 30 140 9 35 21 73 27 83 5 10 11 27
13 37 11 56 97 150 137 150 33 0 167 244 183 332 26 146 -6 257 -99 338 -153
133 -215 249 -267 505 -36 175 -40 338 -24 1030 15 671 13 808 -16 933 -6 26
-12 55 -14 64 -32 156 -115 349 -203 473 -147 208 -325 304 -572 310 -58 1
-137 -4 -176 -11z m-213 -1305 c79 -24 142 -97 178 -209 21 -62 21 -80 21
-1087 l0 -1023 226 6 c190 5 230 3 258 -10 119 -56 61 -118 -134 -141 -25 -3
-65 -10 -90 -15 -72 -14 -173 -31 -198 -33 l-23 -1 5 -721 c3 -396 5 -862 6
-1035 l1 -315 -56 -51 c-198 -182 -449 -186 -685 -11 -30 23 -60 46 -66 52 -6
6 -11 68 -13 150 -2 77 -4 219 -6 315 -2 96 -4 459 -5 807 l-1 632 -22 -5
c-12 -2 -42 -7 -67 -10 -25 -3 -56 -7 -70 -9 -14 -3 -43 -7 -65 -10 -65 -10
-263 -52 -365 -79 -452 -116 -885 -326 -1216 -591 -113 -90 -178 -151 -310
-285 l-104 -105 -84 0 c-81 0 -88 2 -180 49 -113 58 -135 79 -142 134 -6 51
25 148 68 211 25 36 174 218 198 241 3 3 39 46 80 95 41 50 77 92 80 95 3 3
64 75 135 160 71 85 132 157 135 160 3 3 50 59 105 125 55 66 102 122 106 125
3 3 54 64 114 135 60 72 148 175 195 230 47 56 105 125 130 155 65 78 225 267
275 325 23 28 84 100 135 160 51 61 102 121 114 135 11 14 55 66 96 115 41 50
77 92 80 95 5 4 244 287 291 345 9 11 59 70 111 130 51 61 129 153 173 205 44
52 82 97 85 100 3 3 25 30 50 60 59 72 58 71 110 107 127 86 249 119 341 92z"/>
<path d="M4144 4384 c-38 -43 -74 -82 -79 -88 -6 -6 -50 -56 -99 -111 -49 -55
-119 -134 -156 -175 -37 -41 -125 -140 -195 -220 -169 -192 -257 -290 -330
-368 -75 -81 -79 -87 -59 -106 14 -14 34 -18 99 -19 18 0 196 11 300 18 22 2
85 6 140 10 55 3 111 8 125 10 14 2 70 6 125 10 55 4 116 8 135 10 19 2 42 4
50 4 13 1 15 68 15 551 0 303 0 550 -1 550 -1 0 -33 -34 -70 -76z"/>
</g>
</svg>
